<svg width="1920" height="244" viewBox="0 0 1920 244" fill="none" xmlns="http://www.w3.org/2000/svg">
<path d="M-789 6.17057H-724.473C-659.946 6.17057 -531.269 6.17057 -401.462 13.4863C-272.973 21.3542 -143.731 35.1575 -15.8062 87.1959C114 138.682 243.806 227.023 371.731 241.793C500.973 256.01 629.463 198.036 759.269 168.083C887.946 138.682 1017 138.682 1146.81 138.682C1274.92 138.682 1404.54 138.682 1532.46 123.913C1662.08 109.695 1790.19 79.3281 1856.04 65.1107L1920 50.3411V0H1855.47C1790.95 0 1662.27 0 1532.46 0C1403.97 0 1274.73 0 1146.81 0C1017 0 887.194 0 759.269 0C630.027 0 501.538 0 371.731 0C243.054 0 114 0 -15.8062 0C-143.919 0 -273.537 0 -401.462 0C-531.081 0 -659.194 0 -725.037 0H-789V6.17057Z" fill="#512DA8" fill-opacity="0.75"/>
<path d="M0 91.6409L43.6458 99.3015C87.2917 106.676 174.583 122.427 261.875 137.461C349.167 152.496 436.458 168.247 523.75 156.577C611.042 145.337 698.333 106.676 785.625 114.551C872.917 122.427 960.208 175.406 1047.5 171.827C1134.79 168.247 1222.08 106.676 1309.38 83.9803C1396.67 60.8553 1483.96 76.6061 1571.25 80.1858C1658.54 83.7655 1745.83 76.6061 1833.13 64.9362C1920.42 53.6958 2007.71 37.9451 2051.35 30.5708L2095 22.9102V0H2051.35C2007.71 0 1920.42 0 1833.13 0C1745.83 0 1658.54 0 1571.25 0C1483.96 0 1396.67 0 1309.38 0C1222.08 0 1134.79 0 1047.5 0C960.208 0 872.917 0 785.625 0C698.333 0 611.042 0 523.75 0C436.458 0 349.167 0 261.875 0C174.583 0 87.2917 0 43.6458 0H0V91.6409Z" fill="#512DA8"/>
</svg>
